<svg width="194" height="43" viewBox="0 0 194 43" fill="none" xmlns="http://www.w3.org/2000/svg">
<g style="mix-blend-mode:multiply">
<path d="M47.3197 34.5541H43.1431V13.1685H47.2283V16.2385C47.9984 14.906 48.9773 13.9588 50.1585 13.3905C51.3397 12.8288 52.56 12.5479 53.8 12.5479C55.0399 12.5479 56.1885 12.7635 57.1543 13.1946C58.1136 13.6257 58.9163 14.2201 59.5493 14.9713C60.1889 15.729 60.6587 16.6239 60.972 17.6625C61.2852 18.701 61.4353 19.8115 61.4353 21.0003V34.5607H57.2587V21.7123C57.2587 20.9742 57.1804 20.2752 57.0172 19.622C56.8541 18.9688 56.5735 18.4006 56.1754 17.9107C55.7773 17.4208 55.2552 17.0354 54.6222 16.7545C53.9827 16.4736 53.2061 16.3299 52.2925 16.3299C51.4637 16.3299 50.7393 16.4867 50.1193 16.7937C49.4993 17.1072 48.9773 17.5253 48.5661 18.0609C48.1485 18.5965 47.8418 19.2171 47.6329 19.929C47.4241 20.641 47.3197 21.3922 47.3197 22.1956V34.5541Z" fill="#70D44B"/>
<path d="M94.2283 34.5541H90.0517V13.1685H94.1369V16.2385C94.907 14.906 95.8859 13.9588 97.0671 13.3905C98.2483 12.8288 99.4621 12.5479 100.709 12.5479C101.955 12.5479 103.097 12.7635 104.063 13.1946C105.022 13.6257 105.825 14.2201 106.458 14.9713C107.091 15.729 107.567 16.6239 107.881 17.6625C108.194 18.701 108.35 19.8115 108.35 21.0003V34.5607H104.174V21.7123C104.174 20.9742 104.096 20.2752 103.932 19.622C103.769 18.9688 103.489 18.4006 103.091 17.9107C102.692 17.4208 102.17 17.0354 101.537 16.7545C100.898 16.4736 100.121 16.3299 99.2076 16.3299C98.3788 16.3299 97.6544 16.4867 97.0345 16.7937C96.4145 17.1072 95.8924 17.5253 95.4813 18.0609C95.0636 18.5965 94.7569 19.2171 94.5481 19.929C94.3392 20.641 94.2348 21.3922 94.2348 22.1956V34.5541H94.2283Z" fill="#70D44B"/>
<path d="M115.092 27.6629C115.242 28.7929 115.725 29.7401 116.56 30.5109C117.389 31.2816 118.557 31.667 120.071 31.667C121.252 31.667 122.159 31.3861 122.779 30.8244C123.399 30.2626 123.713 29.5964 123.713 28.8256C123.713 28.1463 123.478 27.5649 123.001 27.0946C122.525 26.6243 121.846 26.2781 120.959 26.0691L117.317 25.2657C115.627 24.913 114.322 24.201 113.388 23.1297C112.455 22.065 111.992 20.7717 111.992 19.2628C111.992 18.3418 112.194 17.4796 112.592 16.6631C112.99 15.8466 113.532 15.1281 114.211 14.5075C114.889 13.887 115.699 13.3971 116.632 13.0378C117.565 12.6851 118.551 12.5022 119.588 12.5022C121.037 12.5022 122.257 12.7112 123.249 13.1227C124.241 13.5408 125.05 14.0503 125.67 14.6578C126.29 15.2652 126.76 15.8923 127.067 16.5455C127.38 17.1987 127.589 17.7604 127.713 18.2373L124.026 19.6155C123.967 19.3477 123.863 19.008 123.713 18.59C123.562 18.1785 123.328 17.7866 123.001 17.4142C122.675 17.0419 122.231 16.7284 121.67 16.4606C121.109 16.1928 120.41 16.0621 119.582 16.0621C118.518 16.0621 117.656 16.3495 117.004 16.9309C116.351 17.5122 116.025 18.1654 116.025 18.9101C116.025 20.2752 116.841 21.1309 118.466 21.4902L121.931 22.2479C123.882 22.666 125.357 23.4237 126.349 24.5406C127.341 25.6511 127.837 27.0097 127.837 28.6101C127.837 29.3808 127.674 30.1516 127.348 30.9224C127.021 31.6931 126.538 32.4051 125.905 33.0583C125.266 33.7115 124.463 34.2341 123.484 34.6391C122.505 35.0375 121.35 35.24 120.019 35.24C118.537 35.24 117.271 35.031 116.221 34.6195C115.17 34.2014 114.296 33.6854 113.597 33.0649C112.899 32.4443 112.37 31.7715 111.998 31.0399C111.626 30.3149 111.398 29.6421 111.313 29.015L115.085 27.6825L115.092 27.6629Z" fill="#70D44B"/>
<path d="M135.949 13.1685H140.569V16.9439H135.949V28.0614C135.949 29.0412 136.171 29.7727 136.614 30.2626C137.058 30.7525 137.828 30.9942 138.925 30.9942C139.192 30.9942 139.486 30.9812 139.812 30.9485C140.138 30.9158 140.393 30.8766 140.569 30.8179V34.3713C140.393 34.43 140.054 34.515 139.545 34.6129C139.042 34.7175 138.435 34.7697 137.724 34.7697C135.89 34.7697 134.435 34.2472 133.371 33.189C132.307 32.1373 131.772 30.635 131.772 28.6754V6.4144H135.949V13.175V13.1685Z" fill="#70D44B"/>
<path d="M166.94 43V13.1685H170.98V16.4998C171.574 15.4351 172.474 14.5271 173.688 13.789C174.902 13.0509 176.384 12.6786 178.132 12.6786C179.731 12.6786 181.147 12.966 182.374 13.5473C183.601 14.1287 184.626 14.919 185.442 15.9249C186.257 16.9309 186.877 18.1197 187.308 19.4783C187.739 20.8435 187.954 22.2936 187.954 23.8352C187.954 25.3767 187.732 26.9183 187.288 28.2834C186.845 29.6486 186.192 30.8375 185.337 31.863C184.476 32.8885 183.432 33.6854 182.205 34.2667C180.978 34.8416 179.575 35.1355 178.008 35.1355C176.351 35.1355 174.928 34.7958 173.747 34.11C172.559 33.4306 171.672 32.6141 171.084 31.667V43H166.954H166.94ZM183.686 23.8417C183.686 22.777 183.536 21.7907 183.242 20.8827C182.942 19.9813 182.531 19.1909 181.996 18.5247C181.461 17.8584 180.802 17.3293 180.018 16.9439C179.235 16.5586 178.354 16.3691 177.375 16.3691C176.397 16.3691 175.561 16.5651 174.778 16.9439C173.995 17.3293 173.323 17.8584 172.755 18.5247C172.194 19.1909 171.763 19.9748 171.47 20.8827C171.176 21.7841 171.026 22.7705 171.026 23.8417C171.026 24.9129 171.176 25.9515 171.47 26.8856C171.763 27.8197 172.194 28.6166 172.755 29.2828C173.316 29.9491 173.989 30.4717 174.778 30.8375C175.561 31.2098 176.429 31.3927 177.375 31.3927C178.322 31.3927 179.229 31.2098 179.999 30.8375C180.769 30.4651 181.428 29.9491 181.976 29.2828C182.524 28.6166 182.942 27.8131 183.242 26.8856C183.536 25.9515 183.686 24.9391 183.686 23.8417Z" fill="#70D44B"/>
<path d="M153.445 35.0506C147.265 35.0506 142.233 30.0144 142.233 23.8287C142.233 17.6429 147.265 12.6067 153.445 12.6067C159.625 12.6067 164.656 17.6363 164.656 23.8287C164.656 30.021 159.625 35.0506 153.445 35.0506ZM153.445 16.7284C149.529 16.7284 146.345 19.916 146.345 23.8352C146.345 27.7544 149.529 30.942 153.445 30.942C157.36 30.942 160.545 27.7544 160.545 23.8352C160.545 19.916 157.36 16.7284 153.445 16.7284Z" fill="#70D44B"/>
<path d="M75.6815 35.0506C69.5014 35.0506 64.4699 30.0144 64.4699 23.8287C64.4699 17.6429 69.4949 12.6067 75.6815 12.6067C81.8681 12.6067 86.8931 17.6363 86.8931 23.8287C86.8931 30.021 81.8616 35.0506 75.6815 35.0506ZM75.6815 16.7284C71.7659 16.7284 68.5813 19.916 68.5813 23.8352C68.5813 27.7544 71.7659 30.942 75.6815 30.942C79.5971 30.942 82.7817 27.7544 82.7817 23.8352C82.7817 19.916 79.5971 16.7284 75.6815 16.7284Z" fill="#70D44B"/>
<path d="M12.6277 4.11514C16.6803 4.11514 20.0804 6.96962 20.9287 10.7712H25.0988C24.1982 4.68996 18.9579 0 12.6277 0C6.29754 0 1.05719 4.68996 0.150085 10.7712H4.3267C5.1816 6.96962 8.5751 4.11514 12.6277 4.11514Z" fill="#70D44B"/>
<path d="M19.3038 23.7895C22.4101 21.8429 24.6094 18.59 25.1249 14.7949H20.9679C20.1717 18.6749 16.7326 21.6012 12.6277 21.6012C8.5229 21.6012 5.07719 18.6749 4.28755 14.7949H0.130519C0.64607 18.59 2.84532 21.8429 5.95167 23.7895C2.38197 26.0299 0 29.9883 0 34.5019H4.11135C4.11135 29.8054 7.92904 25.9777 12.6277 25.9777C17.3264 25.9777 21.1441 29.7989 21.1441 34.5019H25.2555C25.2555 29.9883 22.8735 26.0299 19.3038 23.796" fill="#00A19B"/>
<path d="M12.6277 17.7996C14.6769 17.7996 16.4389 16.5651 17.2155 14.8014C17.4895 14.1809 17.6462 13.5016 17.6462 12.7831C17.6462 12.0645 17.4961 11.3983 17.2285 10.7843C16.4519 9.00759 14.6899 7.76651 12.6277 7.76651C10.5655 7.76651 8.8035 9.00759 8.02691 10.7843C7.75935 11.3983 7.60925 12.0711 7.60925 12.7831C7.60925 13.4951 7.76588 14.1874 8.03997 14.8014C8.81655 16.5651 10.5786 17.7996 12.6277 17.7996Z" fill="#00A19B"/>
<path d="M189.024 13.8021V15.9511H188.228V13.8021H187.445V13.0901H189.801V13.8021H189.024ZM192.836 15.9511V14.2136L192.196 15.9511H191.602L190.95 14.2397V15.9511H190.173V13.0901H191.282L191.909 14.612L192.503 13.0901H193.612V15.9511H192.829H192.836Z" fill="#70D44B"/>
</g>
</svg>
