<svg width="151" height="97" viewBox="0 0 151 97" fill="none" xmlns="http://www.w3.org/2000/svg">
<g style="mix-blend-mode:multiply" clip-path="url(#clip0_122_242)">
<path d="M73.9439 6.13074C79.9839 6.13074 85.0382 10.3803 86.3091 16.0491H92.5211C91.1705 6.98316 83.3646 0 73.9439 0C64.5232 0 56.7173 6.98316 55.3667 16.0491H61.5787C62.8496 10.3845 67.9039 6.13074 73.9439 6.13074Z" fill="#70D44B"/>
<path d="M83.8805 35.4323C88.507 32.5307 91.7787 27.6849 92.5504 22.0371H86.3636C85.1808 27.8151 80.0594 32.178 73.9397 32.178C67.82 32.178 62.7028 27.8193 61.5157 22.0371H55.3289C56.1007 27.6849 59.3724 32.5349 63.9988 35.4323C58.6845 38.7623 55.136 44.6578 55.136 51.3807H61.2599C61.2599 44.3807 66.9475 38.6867 73.9397 38.6867C80.9318 38.6867 86.6195 44.3807 86.6195 51.3807H92.7434C92.7434 44.6578 89.1907 38.7623 83.8805 35.4323Z" fill="#00B3AC"/>
<path d="M73.9439 26.5052C76.9975 26.5052 79.6148 24.6659 80.7725 22.0373C81.1794 21.1135 81.4142 20.1015 81.4142 19.0265C81.4142 17.9515 81.1877 16.9605 80.7893 16.0451C79.64 13.3997 77.0101 11.5479 73.9439 11.5479C70.8778 11.5479 68.2479 13.3997 67.0986 16.0451C66.7001 16.9605 66.4736 17.9641 66.4736 19.0265C66.4736 20.0889 66.7085 21.1135 67.1154 22.0373C68.273 24.6659 70.8904 26.5052 73.9439 26.5052Z" fill="#00B3AC"/>
<path d="M4.18186 88.728H0V67.3124H4.08958V70.3862C4.86136 69.0508 5.83867 68.1018 7.02569 67.5349C8.21272 66.9723 9.42911 66.6909 10.6707 66.6909C11.9122 66.6909 13.0657 66.9051 14.0262 67.3376C14.9909 67.7701 15.7921 68.3622 16.4296 69.118C17.0672 69.8739 17.5412 70.7725 17.8516 71.8097C18.1619 72.851 18.3171 73.9638 18.3171 75.148V88.728H14.1353V75.8618C14.1353 75.1186 14.0514 74.4215 13.892 73.7707C13.7284 73.1198 13.4474 72.5445 13.0447 72.0574C12.6462 71.5661 12.1261 71.184 11.4886 70.8984C10.851 70.6171 10.0709 70.4743 9.15228 70.4743C8.32178 70.4743 7.59614 70.6297 6.97117 70.9404C6.35039 71.2512 5.83028 71.6753 5.41503 72.2086C4.99978 72.7419 4.68939 73.3675 4.47967 74.0772C4.27414 74.791 4.16928 75.5469 4.16928 76.3489V88.728H4.18186Z" fill="#70D44B"/>
<path d="M51.1555 88.728H46.9736V67.3124H51.0632V70.3862C51.835 69.0508 52.8123 68.1018 53.9993 67.5349C55.1864 66.9723 56.4027 66.6909 57.6443 66.6909C58.8859 66.6909 60.0393 66.9051 60.9999 67.3376C61.9646 67.7701 62.7657 68.3622 63.4033 69.118C64.0408 69.8739 64.5148 70.7725 64.8252 71.8097C65.1356 72.851 65.2908 73.9638 65.2908 75.148V88.728H61.1089V75.8618C61.1089 75.1186 61.025 74.4215 60.8656 73.7707C60.702 73.1198 60.421 72.5445 60.0184 72.0574C59.6199 71.5661 59.0998 71.184 58.4622 70.8984C57.8247 70.6171 57.0445 70.4743 56.1259 70.4743C55.2954 70.4743 54.5698 70.6297 53.9448 70.9404C53.324 71.2512 52.8039 71.6753 52.3887 72.2086C51.9734 72.7419 51.663 73.3675 51.4533 74.0772C51.2478 74.791 51.1429 75.5469 51.1429 76.3489V88.728H51.1555Z" fill="#70D44B"/>
<path d="M72.0437 81.8286C72.1905 82.9582 72.6813 83.9072 73.5118 84.6756C74.3423 85.4482 75.5125 85.8346 77.0267 85.8346C78.2138 85.8346 79.1156 85.5532 79.7405 84.9863C80.3613 84.4237 80.6759 83.756 80.6759 82.9834C80.6759 82.2989 80.4368 81.7236 79.9628 81.2449C79.4889 80.7704 78.8052 80.4303 77.9159 80.2203L74.271 79.4183C72.5806 79.0614 71.2678 78.3517 70.3366 77.2809C69.4012 76.2144 68.9356 74.921 68.9356 73.4093C68.9356 72.4897 69.137 71.6205 69.5354 70.8059C69.9339 69.9912 70.475 69.269 71.1587 68.6475C71.8424 68.026 72.6477 67.5347 73.5831 67.1778C74.5184 66.8209 75.5041 66.6445 76.5402 66.6445C77.9914 66.6445 79.2162 66.8503 80.2103 67.266C81.2044 67.6817 82.0097 68.194 82.6347 68.8029C83.2555 69.4118 83.7253 70.0416 84.0356 70.6967C84.346 71.3476 84.5599 71.9144 84.6816 72.3889L80.9905 73.7705C80.9318 73.5017 80.8269 73.1616 80.6801 72.7459C80.5291 72.3302 80.2942 71.9396 79.967 71.5659C79.6399 71.1964 79.1953 70.8773 78.6332 70.6085C78.0711 70.3398 77.3707 70.2096 76.5444 70.2096C75.479 70.2096 74.6149 70.4993 73.9648 71.0788C73.3104 71.6583 72.9875 72.3176 72.9875 73.0608C72.9875 74.4255 73.8012 75.2863 75.4328 75.6433L78.9016 76.3991C80.8604 76.8148 82.3327 77.5791 83.3268 78.6918C84.3209 79.8046 84.8158 81.1609 84.8158 82.765C84.8158 83.5376 84.6522 84.3103 84.3251 85.0787C83.9979 85.8514 83.5155 86.5652 82.878 87.2161C82.2404 87.8669 81.4309 88.396 80.4536 88.795C79.4763 89.1939 78.3186 89.3954 76.9848 89.3954C75.4999 89.3954 74.2332 89.1855 73.1804 88.774C72.1276 88.3582 71.251 87.8376 70.5547 87.2161C69.8584 86.5904 69.3257 85.9185 68.9524 85.1879C68.5791 84.4614 68.3526 83.7854 68.2645 83.1639L72.0437 81.8286Z" fill="#70D44B"/>
<path d="M92.9279 67.3123H97.5543V71.0957H92.9279V82.2276C92.9279 83.206 93.1502 83.9408 93.5948 84.4321C94.0394 84.9234 94.8112 85.167 95.9059 85.167C96.1744 85.167 96.468 85.1544 96.7952 85.1208C97.1223 85.0914 97.374 85.0452 97.5502 84.9864V88.5473C97.374 88.6061 97.03 88.6901 96.5267 88.7908C96.0234 88.8958 95.4152 88.9462 94.7021 88.9462C92.865 88.9462 91.4095 88.4213 90.3441 87.3631C89.2745 86.3091 88.7418 84.8017 88.7418 82.8449V60.5391H92.9237V67.3081L92.9279 67.3123Z" fill="#70D44B"/>
<path d="M123.958 97.1891V67.3165H128.006V70.6548C128.597 69.5882 129.503 68.6812 130.72 67.938C131.936 67.1947 133.417 66.8252 135.166 66.8252C136.768 66.8252 138.182 67.1149 139.415 67.6944C140.644 68.2739 141.667 69.0675 142.485 70.0753C143.299 71.0831 143.924 72.2715 144.352 73.6362C144.78 75.0009 144.998 76.458 144.998 77.9991C144.998 79.5402 144.775 81.0855 144.331 82.4502C143.886 83.8149 143.232 85.0117 142.372 86.0362C141.512 87.0608 140.468 87.8629 139.239 88.4423C138.01 89.0218 136.609 89.3116 135.036 89.3116C133.375 89.3116 131.953 88.9714 130.766 88.287C129.579 87.6025 128.69 86.7879 128.098 85.8389V97.1933H123.963L123.958 97.1891ZM140.724 77.9991C140.724 76.9283 140.577 75.9457 140.279 75.0387C139.981 74.1317 139.566 73.3465 139.033 72.6788C138.501 72.0111 137.838 71.4862 137.053 71.0999C136.269 70.7136 135.384 70.5204 134.407 70.5204C133.429 70.5204 132.591 70.7136 131.806 71.0999C131.022 71.4862 130.347 72.0111 129.785 72.6788C129.222 73.3465 128.79 74.1317 128.493 75.0387C128.195 75.9457 128.048 76.9325 128.048 77.9991C128.048 79.0657 128.195 80.1155 128.493 81.0477C128.79 81.9841 129.218 82.7861 129.785 83.4496C130.347 84.1172 131.022 84.6379 131.806 85.0075C132.591 85.3812 133.459 85.5659 134.407 85.5659C135.355 85.5659 136.261 85.3812 137.033 85.0075C137.804 84.6379 138.463 84.1172 139.012 83.4496C139.562 82.7819 139.981 81.9799 140.279 81.0477C140.577 80.1113 140.724 79.0951 140.724 77.9991Z" fill="#70D44B"/>
<path d="M110.448 89.2233C104.257 89.2233 99.2238 84.1843 99.2238 77.9864C99.2238 71.7885 104.257 66.7495 110.448 66.7495C116.639 66.7495 121.672 71.7885 121.672 77.9864C121.672 84.1843 116.639 89.2233 110.448 89.2233ZM110.448 70.8731C106.53 70.8731 103.343 74.0644 103.343 77.9864C103.343 81.9084 106.53 85.0997 110.448 85.0997C114.366 85.0997 117.553 81.9084 117.553 77.9864C117.553 74.0644 114.366 70.8731 110.448 70.8731Z" fill="#70D44B"/>
<path d="M32.5782 89.2233C26.3872 89.2233 21.3539 84.1843 21.3539 77.9864C21.3539 71.7885 26.3872 66.7495 32.5782 66.7495C38.7692 66.7495 43.8025 71.7885 43.8025 77.9864C43.8025 84.1843 38.7692 89.2233 32.5782 89.2233ZM32.5782 70.8731C28.6606 70.8731 25.4728 74.0644 25.4728 77.9864C25.4728 81.9084 28.6606 85.0997 32.5782 85.0997C36.4958 85.0997 39.6836 81.9084 39.6836 77.9864C39.6836 74.0644 36.4958 70.8731 32.5782 70.8731Z" fill="#70D44B"/>
<path d="M145.543 69.0465C145.543 68.6728 145.614 68.3159 145.757 67.9799C145.9 67.644 146.093 67.3543 146.336 67.1065C146.579 66.8588 146.868 66.6614 147.196 66.5186C147.527 66.3717 147.879 66.3003 148.261 66.3003C148.643 66.3003 148.991 66.3717 149.322 66.5186C149.654 66.6656 149.947 66.8588 150.195 67.1065C150.442 67.3543 150.639 67.644 150.782 67.9799C150.925 68.3159 150.996 68.6728 150.996 69.0465C150.996 69.4202 150.925 69.7772 150.782 70.1089C150.639 70.4406 150.442 70.7304 150.195 70.9781C149.947 71.2259 149.654 71.4232 149.322 71.566C148.991 71.713 148.639 71.7844 148.261 71.7844C147.884 71.7844 147.527 71.713 147.196 71.566C146.864 71.419 146.579 71.2259 146.336 70.9781C146.093 70.7304 145.9 70.4406 145.757 70.1089C145.614 69.7772 145.543 69.4202 145.543 69.0465ZM146.172 69.0465C146.172 69.3489 146.227 69.6302 146.336 69.8906C146.445 70.1509 146.592 70.3777 146.78 70.575C146.969 70.7724 147.187 70.9235 147.443 71.0327C147.695 71.1419 147.972 71.2007 148.265 71.2007C148.559 71.2007 148.836 71.1461 149.092 71.0327C149.343 70.9235 149.566 70.7682 149.754 70.575C149.943 70.3819 150.09 70.1509 150.199 69.8906C150.308 69.6302 150.362 69.3489 150.362 69.0465C150.362 68.7442 150.308 68.4628 150.199 68.1983C150.09 67.9338 149.943 67.7028 149.754 67.5096C149.566 67.3165 149.347 67.1611 149.092 67.0519C148.836 66.9428 148.563 66.8882 148.265 66.8882C147.967 66.8882 147.695 66.9428 147.443 67.0519C147.187 67.1653 146.969 67.3165 146.78 67.5096C146.592 67.707 146.445 67.9338 146.336 68.1983C146.227 68.4628 146.172 68.7442 146.172 69.0465ZM148.198 69.4748H147.984V70.5036H147.284V67.5432H148.45C148.592 67.5432 148.727 67.5684 148.848 67.6188C148.97 67.6692 149.079 67.7364 149.171 67.8288C149.264 67.917 149.335 68.0177 149.385 68.1353C149.435 68.2487 149.461 68.3747 149.461 68.509C149.461 68.7064 149.41 68.8786 149.305 69.0297C149.201 69.1809 149.062 69.2943 148.89 69.3657L149.482 70.5036H148.706L148.194 69.4748H148.198ZM148.324 68.8954C148.458 68.8954 148.563 68.8618 148.639 68.7904C148.714 68.7232 148.752 68.6266 148.752 68.509C148.752 68.3915 148.714 68.2907 148.639 68.2193C148.563 68.1479 148.458 68.1143 148.324 68.1143H147.984V68.8912H148.324V68.8954Z" fill="#70D44B"/>
</g>
<defs>
<clipPath id="clip0_122_242">
<rect width="151" height="97" fill="white"/>
</clipPath>
</defs>
</svg>
