<svg width="349" height="800" viewBox="0 0 349 800" fill="none" xmlns="http://www.w3.org/2000/svg">
<g opacity="0.2">
<path d="M348.5 89.4537C460.507 89.4537 554.236 168.094 577.804 273H693C667.954 105.228 523.2 -24 348.5 -24C173.8 -24 29.0461 105.228 4 273H119.196C142.764 168.172 236.493 89.4537 348.5 89.4537V89.4537Z" fill="white"/>
<path d="M532.739 632.334C618.484 578.541 679.12 488.705 693.424 384H578.76C556.838 491.118 461.92 572.002 348.5 572.002C235.08 572.002 140.24 491.196 118.24 384H3.57601C17.8798 488.705 78.5155 578.619 164.261 632.334C65.7665 694.068 0 803.366 0 928H113.498C113.498 798.228 218.911 692.666 348.5 692.666C478.089 692.666 583.502 798.228 583.502 928H697C697 803.366 631.156 694.068 532.739 632.334V632.334Z" fill="white"/>
<path d="M348.5 467C405.113 467 453.639 432.939 475.102 384.258C482.645 367.149 487 348.408 487 328.5C487 308.592 482.801 290.239 475.413 273.287C454.105 224.294 405.346 190 348.5 190C291.654 190 242.895 224.294 221.587 273.287C214.199 290.239 210 308.825 210 328.5C210 348.175 214.355 367.149 221.898 384.258C243.361 432.939 291.887 467 348.5 467Z" fill="white"/>
</g>
</svg>
