<?xml version="1.0" encoding="UTF-8" standalone="no"?><!DOCTYPE svg PUBLIC "-//W3C//DTD SVG 1.1//EN" "http://www.w3.org/Graphics/SVG/1.1/DTD/svg11.dtd"><svg width="100%" height="100%" viewBox="0 0 1455 3334" version="1.1" xmlns="http://www.w3.org/2000/svg" xmlns:xlink="http://www.w3.org/1999/xlink" xml:space="preserve" xmlns:serif="http://www.serif.com/" style="fill-rule:evenodd;clip-rule:evenodd;stroke-linejoin:round;stroke-miterlimit:2;"><g opacity="0.2"><path d="M6.25,372.724c466.696,-0 857.233,327.668 955.433,764.776l479.984,0c-104.359,-699.05 -707.5,-1237.5 -1435.42,-1237.5c-727.917,0 -1331.06,538.45 -1435.42,1237.5l479.984,0c98.2,-436.783 488.737,-764.776 955.433,-764.776Z" style="fill:#fff;fill-rule:nonzero;"/><path d="M773.913,2634.72c357.27,-224.137 609.92,-598.454 669.52,-1034.72l-477.766,0c-91.342,446.325 -486.834,783.342 -959.417,783.342c-472.583,-0 -867.75,-336.692 -959.417,-783.342l-477.766,0c59.599,436.271 312.248,810.913 669.521,1034.72c-410.394,257.225 -684.421,712.633 -684.421,1231.94l472.908,-0c0,-540.717 439.221,-980.559 979.175,-980.559c539.954,0 979.175,439.842 979.175,980.559l472.908,-0c0,-519.309 -274.35,-974.717 -684.42,-1231.94Z" style="fill:#fff;fill-rule:nonzero;"/><path d="M6.25,1945.83c235.888,0 438.079,-141.92 527.508,-344.758c31.429,-71.287 49.575,-149.375 49.575,-232.325c0,-82.95 -17.496,-159.421 -48.279,-230.054c-88.783,-204.138 -291.946,-347.029 -528.804,-347.029c-236.858,-0 -440.021,142.891 -528.804,347.029c-30.784,70.633 -48.279,148.075 -48.279,230.054c-0,81.979 18.145,161.038 49.575,232.325c89.429,202.838 291.62,344.758 527.508,344.758Z" style="fill:#fff;fill-rule:nonzero;"/></g></svg>