<svg width="652" height="667" viewBox="0 0 652 667" fill="none" xmlns="http://www.w3.org/2000/svg">
<g clip-path="url(#clip0_224_179)">
<g style="mix-blend-mode:screen" opacity="0.1">
<path fill-rule="evenodd" clip-rule="evenodd" d="M707.9 223.834C572.32 137.902 390.273 153.774 272.119 271.947C153.964 390.121 138.095 572.197 224.013 707.798L102.5 829.331C-48.3044 625.755 -32.0872 336.545 152.31 152.119C336.707 -32.3072 625.887 -48.5271 829.413 102.301L707.9 223.834ZM716.637 449.257C745.365 523.305 730.108 610.495 670.352 670.261H670.335C610.58 730.026 523.42 745.269 449.383 716.553C423.403 706.491 398.978 691.231 378.011 670.261C357.276 649.522 342.068 625.424 331.99 599.787C302.816 525.54 318.024 437.87 378.011 377.873C437.998 317.86 525.654 302.649 599.89 331.845C625.539 341.925 649.617 357.151 670.352 377.873C691.319 398.843 706.559 423.272 716.637 449.257Z" fill="white"/>
</g>
</g>
<defs>
<clipPath id="clip0_224_179">
<path d="M0 0H652V635C652 652.673 637.673 667 620 667H0V0Z" fill="white"/>
</clipPath>
</defs>
</svg>
